<?xml version="1.0" encoding="UTF-8"?><svg id="Layer_2" xmlns="http://www.w3.org/2000/svg" viewBox="0 0 15.16 8.97"><defs><style>.cls-1{fill:#000;stroke-width:0px;}</style></defs><g id="Layer_1-2"><path class="cls-1" d="M15.01,6.29l-2.1-1.65c-.13-.1-.13-.27,0-.37l2.1-1.65c.13-.1.18-.27.12-.38-.06-.11-.24-.15-.39-.08l-2.5,1c-.15.06-.3-.02-.32-.18l-.38-2.67c-.02-.16-.15-.29-.27-.29s-.25.13-.27.29l-.38,2.67c-.02.16-.17.25-.32.18l-2.46-.98c-.15-.06-.4-.06-.55,0l-2.46.98c-.15.06-.3-.02-.32-.18l-.38-2.67c-.02-.16-.14-.29-.27-.29s-.25.13-.27.29l-.38,2.67c-.02.16-.17.25-.32.18L.42,2.15c-.15-.06-.33-.02-.39.08-.06.11,0,.28.12.38l2.1,1.65c.13.1.13.27,0,.37L.15,6.29c-.13.1-.18.28-.12.4.06.12.24.17.39.11l2.48-.99c.15-.06.29.02.31.18l.36,2.69c.02.16.16.29.31.29s.29-.13.31-.29l.36-2.69c.02-.16.16-.24.31-.18l2.44.98c.15.06.4.06.55,0l2.44-.98c.15-.06.29.02.31.18l.36,2.69c.02.16.16.29.31.29s.29-.13.31-.29l.36-2.69c.02-.16.16-.24.31-.18l2.48.99c.15.06.33.01.39-.11.06-.12,0-.3-.12-.4h0ZM9.67,4.65l-1.85,1.42c-.13.1-.34.1-.47,0l-1.85-1.42c-.13-.1-.13-.26,0-.37l1.85-1.46c.13-.1.34-.1.47,0l1.85,1.46c.13.1.13.27,0,.37h0Z"/></g></svg>